<?xml version="1.0" standalone="no"?>
<!DOCTYPE svg PUBLIC "-//W3C//DTD SVG 20010904//EN"
 "http://www.w3.org/TR/2001/REC-SVG-20010904/DTD/svg10.dtd">
<svg version="1.0" xmlns="http://www.w3.org/2000/svg"
 width="500.000000pt" height="500.000000pt" viewBox="0 0 500.000000 500.000000"
 preserveAspectRatio="xMidYMid meet">
<metadata>
Created by potrace 1.14, written by Peter Selinger 2001-2017
</metadata>
<g transform="translate(0.000000,500.000000) scale(0.100000,-0.100000)"
fill="#000000" stroke="none">
<path d="M3448 4883 c-48 -30 -60 -84 -31 -133 63 -108 224 -21 172 93 -13 29
-58 57 -91 57 -12 0 -35 -8 -50 -17z"/>
<path d="M3160 4793 c-30 -12 -60 -57 -60 -92 0 -50 50 -101 99 -101 50 0 101
50 101 99 0 68 -76 119 -140 94z"/>
<path d="M2854 4589 c-25 -13 -54 -59 -54 -88 0 -50 50 -101 100 -101 49 0
100 51 100 100 0 71 -81 120 -146 89z"/>
<path d="M3448 4583 c-64 -40 -63 -128 2 -166 33 -20 59 -21 93 -6 28 13 57
58 57 89 0 31 -29 76 -57 89 -33 15 -63 13 -95 -6z"/>
<path d="M3151 4486 c-49 -27 -64 -86 -34 -136 38 -66 134 -65 169 1 18 37 18
65 -3 99 -28 47 -84 63 -132 36z"/>
<path d="M2648 4283 c-48 -30 -60 -84 -31 -133 38 -66 128 -66 166 0 30 50 16
104 -33 133 -35 21 -67 21 -102 0z"/>
<path d="M3354 4289 c-25 -13 -54 -60 -54 -89 0 -49 51 -100 100 -100 49 0
100 51 100 100 0 71 -81 120 -146 89z"/>
<path d="M2954 4189 c-25 -13 -54 -60 -54 -89 0 -31 29 -76 57 -89 34 -15 60
-14 93 6 108 63 17 226 -96 172z"/>
<path d="M2554 3989 c-25 -13 -54 -59 -54 -88 0 -71 81 -122 143 -90 55 30 72
86 40 139 -26 45 -81 62 -129 39z"/>
<path d="M3154 3989 c-25 -13 -54 -59 -54 -88 0 -50 50 -101 99 -101 50 0 101
50 101 100 0 71 -81 120 -146 89z"/>
<path d="M2855 3888 c-34 -20 -46 -36 -52 -72 -9 -59 39 -116 98 -116 30 0 76
30 88 57 39 85 -55 177 -134 131z"/>
<path d="M2548 3683 c-48 -30 -60 -84 -31 -133 29 -49 83 -63 133 -33 66 38
66 128 0 166 -35 21 -67 21 -102 0z"/>
<path d="M1448 3583 c-34 -21 -52 -64 -44 -104 17 -88 133 -107 179 -29 30 50
16 104 -33 133 -35 21 -67 21 -102 0z"/>
<path d="M1848 3583 c-64 -40 -63 -128 2 -166 15 -10 38 -17 50 -17 12 0 35 7
50 17 66 38 66 128 0 166 -35 21 -67 21 -102 0z"/>
<path d="M3348 3583 c-48 -30 -60 -84 -31 -133 29 -49 83 -63 133 -33 66 38
66 128 0 166 -35 21 -67 21 -102 0z"/>
<path d="M3748 3583 c-64 -40 -63 -128 2 -166 15 -10 38 -17 50 -17 12 0 35 7
50 17 66 38 66 128 0 166 -35 21 -67 21 -102 0z"/>
<path d="M1055 3488 c-34 -20 -46 -36 -52 -72 -9 -59 39 -116 98 -116 30 0 76
30 88 57 39 85 -55 177 -134 131z"/>
<path d="M2248 3483 c-48 -30 -60 -84 -31 -133 29 -49 83 -63 133 -33 49 29
63 83 33 133 -29 49 -86 63 -135 33z"/>
<path d="M2948 3483 c-48 -30 -60 -84 -31 -133 29 -49 83 -63 133 -33 49 29
63 83 33 133 -29 49 -86 63 -135 33z"/>
<path d="M4154 3489 c-25 -13 -54 -60 -54 -89 0 -49 51 -100 100 -100 49 0
100 51 100 99 0 72 -80 121 -146 90z"/>
<path d="M2554 3389 c-25 -13 -54 -59 -54 -88 0 -50 50 -101 100 -101 31 0 76
29 89 57 40 87 -49 173 -135 132z"/>
<path d="M1548 3283 c-48 -30 -60 -84 -31 -133 29 -49 83 -63 133 -33 49 29
63 83 33 133 -29 49 -86 63 -135 33z"/>
<path d="M1954 3289 c-25 -13 -54 -59 -54 -88 0 -50 50 -101 100 -101 49 0
100 51 100 100 0 71 -81 120 -146 89z"/>
<path d="M3148 3283 c-64 -40 -63 -128 2 -166 15 -10 38 -17 50 -17 31 0 76
29 89 57 15 34 14 60 -6 93 -29 49 -86 63 -135 33z"/>
<path d="M3548 3283 c-48 -30 -60 -84 -31 -133 29 -49 83 -63 133 -33 49 29
63 83 33 133 -29 49 -86 63 -135 33z"/>
<path d="M3848 3283 c-48 -30 -60 -84 -31 -133 37 -63 120 -66 163 -6 45 64
-4 157 -83 156 -12 0 -34 -8 -49 -17z"/>
<path d="M754 3189 c-25 -13 -54 -59 -54 -88 0 -78 93 -126 156 -81 99 70 7
222 -102 169z"/>
<path d="M1154 3189 c-25 -13 -54 -60 -54 -89 0 -51 49 -100 100 -100 49 0
100 51 100 99 0 72 -80 121 -146 90z"/>
<path d="M2354 3189 c-25 -13 -54 -60 -54 -89 0 -51 49 -100 100 -100 49 0
100 51 100 100 0 71 -81 120 -146 89z"/>
<path d="M2754 3189 c-25 -13 -54 -60 -54 -89 0 -50 51 -100 101 -100 48 0 99
51 99 100 0 71 -81 120 -146 89z"/>
<path d="M1354 2989 c-25 -13 -54 -60 -54 -89 0 -49 51 -100 100 -100 49 0
100 51 100 100 0 71 -81 120 -146 89z"/>
<path d="M1648 2983 c-48 -30 -60 -84 -31 -133 38 -66 128 -66 166 0 10 15 17
38 17 50 0 31 -29 76 -57 89 -33 15 -63 13 -95 -6z"/>
<path d="M2048 2983 c-64 -40 -63 -128 2 -166 33 -20 59 -21 93 -6 28 13 57
58 57 89 0 31 -29 76 -57 89 -33 15 -63 13 -95 -6z"/>
<path d="M2955 2988 c-34 -20 -46 -36 -52 -72 -9 -59 39 -116 98 -116 48 0 99
51 99 100 0 71 -85 122 -145 88z"/>
<path d="M3348 2983 c-64 -40 -63 -128 2 -166 15 -10 38 -17 50 -17 12 0 35 7
50 17 66 38 66 128 0 166 -35 21 -67 21 -102 0z"/>
<path d="M3654 2989 c-25 -13 -54 -60 -54 -89 0 -50 51 -100 101 -100 48 0 99
51 99 100 0 71 -81 120 -146 89z"/>
<path d="M948 2883 c-64 -40 -63 -128 2 -166 50 -30 104 -16 133 33 21 36 21
64 0 100 -29 49 -86 63 -135 33z"/>
<path d="M2548 2883 c-48 -30 -60 -84 -31 -133 29 -49 83 -63 133 -33 66 38
66 128 0 166 -35 21 -67 21 -102 0z"/>
<path d="M560 2793 c-31 -13 -60 -57 -60 -93 0 -49 51 -100 100 -100 49 0 100
51 100 99 0 68 -76 119 -140 94z"/>
<path d="M1448 2683 c-48 -30 -60 -84 -31 -133 29 -49 83 -63 133 -33 49 29
63 83 33 133 -29 49 -86 63 -135 33z"/>
<path d="M1848 2683 c-48 -30 -60 -84 -31 -133 37 -63 120 -66 163 -6 45 64
-4 157 -83 156 -12 0 -34 -8 -49 -17z"/>
<path d="M2248 2683 c-64 -40 -63 -128 2 -166 50 -30 104 -16 133 33 30 50 16
104 -33 133 -35 21 -67 21 -102 0z"/>
<path d="M3148 2683 c-64 -40 -63 -128 2 -166 15 -10 38 -17 50 -17 31 0 76
29 89 57 15 34 14 60 -6 93 -29 49 -86 63 -135 33z"/>
<path d="M3548 2683 c-48 -30 -60 -84 -31 -133 38 -66 128 -66 166 0 30 50 16
104 -33 133 -35 21 -67 21 -102 0z"/>
<path d="M1160 2593 c-30 -12 -60 -57 -60 -92 0 -50 50 -101 100 -101 49 0
100 51 100 100 0 67 -77 117 -140 93z"/>
<path d="M2754 2589 c-25 -13 -54 -59 -54 -88 0 -50 50 -101 100 -101 49 0
100 51 100 100 0 71 -81 120 -146 89z"/>
<path d="M855 2488 c-34 -20 -46 -36 -52 -72 -9 -59 39 -116 98 -116 30 0 76
30 88 57 39 85 -55 177 -134 131z"/>
<path d="M448 2383 c-29 -18 -48 -52 -48 -84 0 -32 31 -77 60 -89 113 -47 195
111 90 173 -35 21 -67 21 -102 0z"/>
<path d="M1648 2383 c-48 -30 -60 -84 -31 -133 29 -49 83 -63 133 -33 66 38
66 128 0 166 -35 21 -67 21 -102 0z"/>
<path d="M2054 2389 c-25 -13 -54 -59 -54 -88 0 -50 50 -101 100 -101 12 0 35
7 50 17 108 63 17 226 -96 172z"/>
<path d="M2448 2383 c-64 -40 -63 -128 2 -166 33 -20 59 -21 93 -6 28 13 57
58 57 89 0 31 -29 76 -57 89 -33 15 -63 13 -95 -6z"/>
<path d="M3048 2383 c-48 -30 -60 -84 -31 -133 38 -66 128 -66 166 0 10 15 17
38 17 50 0 31 -29 76 -57 89 -33 15 -63 13 -95 -6z"/>
<path d="M3448 2383 c-64 -40 -63 -128 2 -166 50 -30 104 -16 133 33 30 50 16
104 -33 133 -35 21 -67 21 -102 0z"/>
<path d="M1354 2289 c-25 -13 -54 -59 -54 -88 0 -50 50 -101 99 -101 50 0 101
50 101 99 0 72 -80 121 -146 90z"/>
<path d="M2754 2189 c-25 -13 -54 -60 -54 -89 0 -50 51 -100 101 -100 30 0 76
30 88 57 40 87 -49 173 -135 132z"/>
<path d="M748 2083 c-64 -40 -63 -128 2 -166 50 -30 104 -16 133 33 21 36 21
64 0 100 -29 49 -86 63 -135 33z"/>
<path d="M1054 2089 c-25 -13 -54 -60 -54 -89 0 -49 51 -100 100 -100 49 0
100 51 100 100 0 71 -81 120 -146 89z"/>
<path d="M1748 2083 c-48 -30 -60 -84 -31 -133 29 -49 83 -63 133 -33 49 29
63 83 33 133 -29 49 -86 63 -135 33z"/>
<path d="M2460 2093 c-30 -12 -60 -57 -60 -92 0 -50 50 -101 99 -101 50 0 101
50 101 100 0 67 -77 117 -140 93z"/>
<path d="M3151 2086 c-49 -27 -64 -86 -34 -136 29 -49 83 -63 133 -33 110 65
13 231 -99 169z"/>
<path d="M448 1983 c-48 -30 -60 -84 -31 -133 17 -30 51 -50 84 -50 30 0 76
30 88 57 22 49 7 99 -39 126 -35 21 -67 21 -102 0z"/>
<path d="M2048 1983 c-48 -30 -60 -84 -31 -133 29 -49 83 -63 133 -33 66 38
66 128 0 166 -35 21 -67 21 -102 0z"/>
<path d="M3548 1983 c-48 -30 -60 -84 -31 -133 29 -49 83 -63 133 -33 49 29
63 83 33 133 -29 49 -86 63 -135 33z"/>
<path d="M1455 1888 c-33 -19 -45 -35 -51 -67 -12 -61 36 -121 96 -121 31 0
76 29 89 57 39 85 -55 177 -134 131z"/>
<path d="M1154 1789 c-25 -13 -54 -59 -54 -88 0 -50 50 -101 100 -101 31 0 76
29 89 57 40 87 -49 173 -135 132z"/>
<path d="M2848 1783 c-64 -40 -63 -128 2 -166 15 -10 38 -17 50 -17 31 0 76
29 89 57 15 34 14 60 -6 93 -29 49 -86 63 -135 33z"/>
<path d="M860 1693 c-30 -12 -60 -57 -60 -92 0 -50 50 -101 99 -101 50 0 101
50 101 100 0 67 -77 117 -140 93z"/>
<path d="M1748 1683 c-48 -30 -60 -84 -31 -133 29 -49 83 -63 133 -33 49 29
63 83 33 133 -29 49 -86 63 -135 33z"/>
<path d="M2255 1688 c-53 -31 -69 -86 -39 -136 41 -71 133 -68 173 5 43 81
-55 176 -134 131z"/>
<path d="M2554 1689 c-25 -13 -54 -59 -54 -88 0 -50 50 -101 99 -101 50 0 101
50 101 100 0 71 -81 120 -146 89z"/>
<path d="M3255 1688 c-50 -29 -67 -80 -44 -131 13 -28 58 -57 89 -57 49 0 100
51 100 100 0 71 -85 122 -145 88z"/>
<path d="M3648 1683 c-48 -30 -60 -84 -31 -133 38 -66 128 -66 166 0 30 50 16
104 -33 133 -35 21 -67 21 -102 0z"/>
<path d="M554 1589 c-25 -13 -54 -59 -54 -88 0 -50 50 -101 100 -101 49 0 100
51 100 100 0 71 -81 120 -146 89z"/>
<path d="M1448 1483 c-48 -30 -60 -84 -31 -133 37 -63 120 -66 163 -6 45 64
-4 157 -83 156 -12 0 -34 -8 -49 -17z"/>
<path d="M1954 1489 c-25 -13 -54 -59 -54 -88 0 -50 50 -101 99 -101 50 0 101
50 101 99 0 72 -80 121 -146 90z"/>
<path d="M1050 1387 c-26 -20 -50 -60 -50 -84 0 -52 49 -103 100 -103 50 0
100 51 100 101 0 30 -30 76 -57 88 -31 14 -74 13 -93 -2z"/>
<path d="M2848 1383 c-48 -30 -60 -84 -31 -133 29 -49 83 -63 133 -33 49 29
63 83 33 133 -29 49 -86 63 -135 33z"/>
<path d="M3248 1383 c-48 -30 -60 -84 -31 -133 27 -46 77 -61 126 -39 28 13
57 58 57 89 0 31 -29 76 -57 89 -33 15 -63 13 -95 -6z"/>
<path d="M3954 1389 c-25 -13 -54 -60 -54 -89 0 -50 51 -100 101 -100 48 0 99
51 99 100 0 71 -81 120 -146 89z"/>
<path d="M648 1283 c-64 -40 -63 -128 2 -166 50 -30 104 -16 133 33 21 36 21
64 0 100 -29 49 -86 63 -135 33z"/>
<path d="M2455 1288 c-54 -31 -69 -86 -38 -138 29 -49 83 -63 133 -33 49 29
63 83 33 133 -27 46 -85 63 -128 38z"/>
<path d="M3548 1283 c-48 -30 -60 -84 -31 -133 29 -49 83 -63 133 -33 49 29
63 83 33 133 -29 49 -86 63 -135 33z"/>
<path d="M1754 1189 c-25 -13 -54 -59 -54 -88 0 -33 20 -67 50 -84 36 -21 64
-21 100 0 108 63 17 226 -96 172z"/>
<path d="M2160 1193 c-30 -12 -60 -57 -60 -92 0 -50 50 -101 100 -101 49 0
100 51 100 100 0 67 -77 117 -140 93z"/>
<path d="M1148 1083 c-64 -40 -63 -128 2 -166 50 -30 104 -16 133 33 30 50 16
104 -33 133 -35 21 -67 21 -102 0z"/>
<path d="M1454 1089 c-25 -13 -54 -60 -54 -89 0 -50 51 -100 101 -100 48 0 99
51 99 100 0 71 -81 120 -146 89z"/>
<path d="M2748 1083 c-64 -40 -63 -128 2 -166 50 -30 104 -16 133 33 30 50 16
104 -33 133 -35 21 -67 21 -102 0z"/>
<path d="M3154 1089 c-25 -13 -54 -59 -54 -88 0 -50 50 -101 99 -101 50 0 101
50 101 99 0 72 -80 121 -146 90z"/>
<path d="M3954 1089 c-25 -13 -54 -60 -54 -89 0 -50 51 -100 101 -100 48 0 99
51 99 100 0 71 -81 120 -146 89z"/>
<path d="M4248 1083 c-48 -30 -60 -84 -31 -133 37 -63 120 -66 163 -6 33 47
20 110 -29 139 -36 21 -68 21 -103 0z"/>
<path d="M848 983 c-48 -30 -60 -84 -31 -133 29 -49 83 -63 133 -33 49 29 63
83 33 133 -29 49 -86 63 -135 33z"/>
<path d="M1948 883 c-48 -30 -60 -84 -31 -133 27 -46 77 -61 126 -39 28 13 57
58 57 89 0 31 -29 76 -57 89 -33 15 -63 13 -95 -6z"/>
<path d="M2448 883 c-64 -40 -63 -128 2 -166 33 -20 59 -21 93 -6 28 13 57 58
57 89 0 31 -29 76 -57 89 -33 15 -63 13 -95 -6z"/>
<path d="M3454 889 c-25 -13 -54 -60 -54 -89 0 -31 29 -76 57 -89 52 -24 104
-5 132 46 43 81 -50 173 -135 132z"/>
<path d="M3754 889 c-25 -13 -54 -60 -54 -89 0 -49 51 -100 100 -100 49 0 100
51 100 99 0 72 -80 121 -146 90z"/>
<path d="M1554 789 c-25 -13 -54 -59 -54 -88 0 -50 50 -101 99 -101 50 0 101
50 101 100 0 71 -81 120 -146 89z"/>
<path d="M3048 783 c-64 -40 -63 -128 2 -166 50 -30 104 -16 133 33 30 50 16
104 -33 133 -35 21 -67 21 -102 0z"/>
<path d="M4054 789 c-25 -13 -54 -59 -54 -88 0 -50 50 -101 99 -101 50 0 101
50 101 100 0 71 -81 120 -146 89z"/>
<path d="M1148 683 c-48 -30 -60 -84 -31 -133 29 -49 83 -63 133 -33 49 29 63
83 33 133 -29 49 -86 63 -135 33z"/>
<path d="M2255 688 c-34 -20 -46 -36 -52 -72 -9 -59 39 -116 98 -116 30 0 76
30 88 57 39 85 -55 177 -134 131z"/>
<path d="M2748 683 c-48 -30 -60 -84 -31 -133 29 -49 83 -63 133 -33 49 29 63
83 33 133 -29 49 -86 63 -135 33z"/>
<path d="M1848 583 c-64 -40 -63 -128 2 -166 33 -20 59 -21 93 -6 28 13 57 58
57 89 0 31 -29 76 -57 89 -33 15 -63 13 -95 -6z"/>
<path d="M3355 588 c-34 -20 -46 -36 -52 -72 -9 -58 39 -116 97 -116 49 0 100
51 100 99 0 72 -85 124 -145 89z"/>
<path d="M3748 483 c-64 -40 -63 -128 2 -166 50 -30 104 -16 133 33 30 50 16
104 -33 133 -35 21 -67 21 -102 0z"/>
<path d="M2493 466 c-23 -20 -28 -32 -28 -70 0 -62 35 -98 95 -100 35 -1 46 4
71 32 40 44 40 93 0 133 -39 38 -97 40 -138 5z"/>
<path d="M1448 383 c-34 -21 -52 -64 -44 -104 17 -88 133 -107 179 -29 30 50
16 104 -33 133 -35 21 -67 21 -102 0z"/>
<path d="M2160 393 c-31 -13 -60 -57 -60 -93 0 -49 51 -100 100 -100 49 0 100
51 100 99 0 68 -76 119 -140 94z"/>
<path d="M2954 389 c-25 -13 -54 -60 -54 -89 0 -31 29 -76 57 -89 34 -15 60
-14 93 6 108 63 17 226 -96 172z"/>
<path d="M1754 289 c-25 -13 -54 -60 -54 -89 0 -49 51 -100 100 -100 49 0 100
51 100 100 0 71 -81 120 -146 89z"/>
<path d="M3354 289 c-25 -13 -54 -60 -54 -89 0 -49 51 -100 100 -100 49 0 100
51 100 99 0 72 -80 121 -146 90z"/>
</g>
</svg>
